<?xml version="1.0" encoding="UTF-8" standalone="no"?>
<!-- Created with Inkscape (http://www.inkscape.org/) -->
<svg id="svg3081" xmlns:rdf="http://www.w3.org/1999/02/22-rdf-syntax-ns#" xmlns="http://www.w3.org/2000/svg" height="17.803" width="17.128" version="1.1" xmlns:cc="http://creativecommons.org/ns#" xmlns:dc="http://purl.org/dc/elements/1.1/">
 <metadata id="metadata3086">
  <rdf:RDF>
   <cc:Work rdf:about="">
    <dc:format>image/svg+xml</dc:format>
    <dc:type rdf:resource="http://purl.org/dc/dcmitype/StillImage"/>
    <dc:title/>
   </cc:Work>
  </rdf:RDF>
 </metadata>
 <g id="layer1" stroke-linejoin="miter" transform="translate(0.5,1.0331685)" stroke="#000" stroke-linecap="butt" stroke-width="1px" fill="none">
  <path id="path3089" d="m0,0.0074256,0,7.8837,2.9282,0.04505,0,5.496-0.04505-5.496-2.7931-0.090099,0,8.199l5.6312-0.045v-10.451l-2.8381-0.1802v-2.703l-0.045049,2.5678,2.8832,0.3604,0.04505-5.6762z"/>
  <path id="path3091" d="M5.7213-0.53317,7.7936,5.999,9.4153-0.21782,11.533-0.082673,11.713,16.225,9.6406,15.955,9.6406,8.4317,7.7485,12.171,5.9015,7.6658z"/>
  <path id="path3093" d="m11.803,0.18762c4.1896-0.22525,4.0995-0.22525,4.0995-0.22525l0.13515,7.4782-2.2074,0.1802,2.1624-0.090099,0.13515,8.7396-3.9193-0.13515z"/>
  <path id="path3095" d="m14.055,1.8995,0.1802,3.0634z"/>
  <path id="path3097" d="m14.236,10.144,0.04505,3.3337z"/>
 </g>
</svg>
