<?xml version="1.0" encoding="utf-8"?>
<!-- Generator: Adobe Illustrator 16.0.0, SVG Export Plug-In . SVG Version: 6.00 Build 0)  -->
<!DOCTYPE svg PUBLIC "-//W3C//DTD SVG 1.1//EN" "http://www.w3.org/Graphics/SVG/1.1/DTD/svg11.dtd">
<svg version="1.1" id="Layer_1" xmlns="http://www.w3.org/2000/svg" xmlns:xlink="http://www.w3.org/1999/xlink" x="0px" y="0px"
   width="612px" height="792px" viewBox="0 0 612 792" enable-background="new 0 0 612 792" xml:space="preserve">
<g>
  <g>
    <path d="M30.288,258.848L66.25,231l19.814-7.249l12.909-5.726l12.162-10.752l7.662-12.693l8.749-10.578l8.445-6.945l8.635-4.423
      l3.363,9.595c0,0,3.487,1.271,3.865-0.922c0.376-2.188,3.531-7.415,3.909-9.604c0.376-2.194,4.995-7.493,4.995-7.493
      s3.982-8.162,4.847-10.376c0.864-2.215,5.557-6.077,6.944-7.592c1.39-1.518,5.291-1.718,6.156-3.931
      c0.863-2.217,5.445-8.241,5.445-8.241l7.507-6.171l5.557-6.075l4.545-6.746l9.906-7.02l4.545-6.746l8.261-10.551l4.928-10.026
      l5.95-16.311l3.611,13.292l6.215,16.326l0.775,15.154l4.529,12.073l5.468,11.295c0,0,1.305,6.447,2.807,7.093
      c1.499,0.646,7.38,10.478,7.38,10.478l6.346,2.207l4.609-7.834l5.227-12.567l5.04-16.178l4.652-4.58l1.36-11.648l3.235-13.189
      l5.034-6.77l3.797-11.772l-0.331-6.493l5.444-8.242c0,0,4.506-7.463,4.884-9.656c0.377-2.188,3.533-7.416,3.533-7.416
      l8.986,22.696l4.446,20.032l3.736,15.727l2.995,10.699l0.774,15.157l4.415,9.906l8.037,13.7l0.535,10.465l3.747,6.32
      c0,0,2.209,4.95,3.71,5.597c1.497,0.646,5.88,9.83,5.88,9.83s-2.106,6.619,0.442,8.66c2.549,2.04,3.638,4.155,4.723,6.273
      c1.087,2.113,4.271,7.017,4.271,7.017l5.395,9.854c0,0,3.892,9.208,4.491,11.347c0.599,2.141,3.259,6.347,4.344,8.462
      C390.984,229.855,398,239,398,239l-11.75-2.5l-10.516-27.573l-6.896-10.502l-8.6-8.06l-2.725-6.644l-1.979-6.412l-4.693-5.729
      l-3.746-12.29l-3.103-6.898l-3.156-7.889l-6.001-9.823l-3.059-9.612l-2.412-7.745c0,0,0.893-7.242,0.299-8.427
      c-0.814-1.639-2.002-6.953-2.061-8.037c-0.055-1.08-2.663-9.09-2.663-9.09l-3.819-4.146l0.209-5.436l-3.568-5.247l-6.01,4.38
      l-0.012,9.316c0,0-2.899,2.1-3.603,1.271l-1.206,2.684l-2.97-0.662l-0.564,6.814l-0.681,4.646l-1.815,3.893l-2.12,5.173
      l-2.667,5.2c0,0-1.485,4.42-2.463,4.468c-0.972,0.051-4.201,3.835-4.201,3.835s-1.279,3.683-1.712,4.789
      c-0.432,1.109-0.941,5.476-0.941,5.476l-1.674,5.513l-2.877,5.938l-0.791,6.008l-2.689,4.75l-5.452,8.149l-5.213,12.75
      l-7.258,15.839l3.549-23.79l3.919-9.429l-6.833-4.533l-2.996-5.998c0,0-2.362-3.135-3.166-4.542
      c-0.805-1.407-2.641-3.846-3.185-4.902c-0.543-1.058-3.239-5.985-3.54-7.057c-0.298-1.067-1.867-7.864-1.867-7.864l-2.51-6.021
      l-3.841-3.421l-1.645-8.238l-0.405-7.938l-0.613-7.206l-1.086,3.856l-0.769-1.593l-1.635,1.174c0,0-1.332,0.002-1.959,1.187
      c-1.971,3.728-4.138,5.095-4.138,5.095l-4.208,3.743c0,0-2.249,2.647-2.941,3.408c-0.696,0.758-2.389,2.292-3.308,3.422
      c-0.921,1.133-3.762,5.351-4.494,5.387c-0.73,0.038-2.871,1.234-2.871,1.234l-2.295,1.744l-5.418,5.162
      c0,0-3.653,3.893-4.365,4.292c-0.711,0.401-2.975,2.778-3.687,3.175c-0.715,0.399-2.112,1.737-2.112,1.737l-4.633,6.207
      c-1.071,2.946-3.24,8.306-3.972,8.343c-0.732,0.038-3.577,2.988-4.814,2.69c-1.237-0.301-3.984,4.544-3.984,4.544l0,0
      l-2.069,2.549l-1.394,1.427l-2.142,4.722l-5.199,9.493c0,0-3.548,5.879-4.224,6.998c-0.676,1.122-19.762,33.033-19.762,33.033
      s5.62-20.928,6.306-23.66c0.752-2.989-0.972-3.479-0.972-3.479l-3.374-3.807l-1.892-3.521l-5.853,5.002l-3.491,3.437l-4.017,2.737
      l-4.168,4.557l-3.172,4.868l-3.717,3.807l-4.131,5.274c0,0-4.184,4.198-4.899,4.592c-0.712,0.4-4.598,5.663-4.598,5.663
      l-7.13,3.984l-6.473,2.502l-6.041,1.394l-8.666,2.615L48.5,253.25L30.288,258.848z"/>
    <path d="M30.435,259.326l-0.453-0.874l36.023-27.896l0.073-0.027l19.814-7.249L98.7,217.6l12.047-10.65l7.623-12.627l8.792-10.638
      l8.603-7.071l9.146-4.685l3.471,9.902c0.329,0.099,0.978,0.266,1.604,0.266c1.228,0,1.337-0.634,1.378-0.873
      c0.2-1.162,1.072-2.993,1.995-4.932c0.854-1.792,1.736-3.646,1.914-4.673c0.378-2.209,4.417-6.936,5.067-7.686
      c0.362-0.744,3.992-8.208,4.802-10.28c0.663-1.7,3.224-4.105,5.281-6.038c0.743-0.697,1.384-1.3,1.76-1.71
      c0.659-0.72,1.719-1.14,2.841-1.584c1.374-0.544,2.794-1.107,3.218-2.192c0.878-2.256,5.324-8.113,5.513-8.361l0.081-0.083
      l7.507-6.171l5.505-6.026l4.625-6.816l9.831-6.967l4.495-6.67l8.25-10.539l4.905-9.979l6.469-17.74l4.023,14.812l6.232,16.431
      l0.771,15.077l4.502,12l5.49,11.372c0.603,2.977,1.736,6.398,2.515,6.732c1.524,0.657,6.334,8.552,7.518,10.524l5.788,2.013
      l4.401-7.481l5.196-12.505l5.062-16.254l4.616-4.544l1.34-11.474l3.331-13.43l4.985-6.703l3.744-11.606l-0.335-6.565l5.535-8.378
      c1.229-2.037,4.511-7.743,4.808-9.465c0.389-2.255,3.468-7.372,3.599-7.589l0.521-0.864l9.357,23.634l4.47,20.108l3.734,15.72
      l3.008,10.789l0.771,15.063l4.377,9.821l8.073,13.756l0.535,10.464l3.684,6.214c0.851,1.896,2.516,4.978,3.479,5.393
      c1.589,0.686,5.388,8.512,6.133,10.074l0.085,0.178l-0.06,0.188c-0.556,1.751-1.59,6.622,0.278,8.119
      c2.641,2.113,3.767,4.31,4.855,6.435c1.062,2.066,4.213,6.923,4.244,6.972l5.414,9.886c0.182,0.423,3.933,9.308,4.534,11.452
      c0.4,1.432,1.828,3.944,2.976,5.963c0.522,0.918,1,1.759,1.332,2.406c1.056,2.051,7.986,11.092,8.056,11.184l0.825,1.075
      l-13.342-2.838l-10.594-27.776l-6.834-10.407l-8.677-8.194l-2.725-6.644l-1.965-6.361l-4.723-5.824l-3.746-12.29l-3.08-6.839
      l-3.164-7.908l-6.014-9.857l-3.059-9.612l-2.445-7.851l0.014-0.107c0.362-2.945,0.711-7.418,0.348-8.142
      c-0.877-1.765-2.054-7.146-2.112-8.234c-0.037-0.732-1.604-5.775-2.605-8.858l-3.886-4.217l0.211-5.478l-3.186-4.684l-5.387,3.926
      l-0.012,9.317l-0.207,0.149c-0.22,0.16-2.188,1.56-3.392,1.56c-0.094,0-0.18-0.008-0.258-0.022l-1.163,2.588l-2.808-0.626
      l-0.517,6.243l-0.726,4.815l-1.815,3.893l-2.11,5.151l-2.685,5.239c-0.698,2.095-1.793,4.686-2.883,4.739
      c-0.484,0.072-2.335,1.9-3.784,3.589c-0.203,0.583-1.289,3.699-1.688,4.718c-0.335,0.86-0.771,4.155-0.911,5.352l-1.692,5.601
      l-2.87,5.938l-0.841,6.109l-2.689,4.75l-5.443,8.139l-5.194,12.704l-7.266,15.858l-0.949-0.282l3.582-23.908l3.761-9.048
      l-6.601-4.379l-3.056-6.117c-0.049-0.052-2.343-3.1-3.153-4.517c-0.38-0.664-1.005-1.579-1.611-2.463
      c-0.663-0.97-1.29-1.886-1.584-2.458c-0.115-0.224-0.326-0.62-0.59-1.116c-1.384-2.6-2.754-5.208-2.987-6.035
      c-0.298-1.067-1.808-7.608-1.873-7.887l-2.44-5.835l-3.881-3.457l-1.678-8.403l-0.415-8.011l-0.378-4.448l-0.699,2.479
      l-1.083-2.247l-1.282,0.921h-0.161c-0.039,0-1.044,0.026-1.518,0.92c-2.01,3.802-4.22,5.225-4.313,5.284l-4.143,3.694
      c-0.043,0.059-2.213,2.612-2.904,3.371c-0.258,0.281-0.647,0.664-1.084,1.094c-0.729,0.716-1.636,1.608-2.205,2.308
      c-0.239,0.294-0.608,0.798-1.037,1.382c-2.246,3.063-3.161,4.156-3.82,4.188c-0.422,0.021-1.805,0.698-2.651,1.171l-2.236,1.706
      l-5.376,5.126c-0.599,0.64-3.724,3.95-4.466,4.366c-0.301,0.169-1.063,0.881-1.736,1.509c-0.959,0.895-1.568,1.453-1.952,1.667
      c-0.541,0.302-1.634,1.302-2.01,1.662l-4.534,6.085c-2.063,5.665-3.541,8.559-4.391,8.603c-0.182,0.043-0.851,0.549-1.338,0.918
      c-1.237,0.935-2.667,1.986-3.618,1.759c-0.527,0-2.131,2.011-3.432,4.304l-2.116,2.618l-1.363,1.398l-2.105,4.642l-5.216,9.526
      l-4.235,7.017c-0.675,1.121-19.761,33.031-19.761,33.031l-0.912-0.387c0.056-0.209,5.627-20.955,6.304-23.651
      c0.614-2.438-0.582-2.862-0.633-2.879l-0.128-0.042l-0.1-0.104l-3.44-3.902l-1.599-2.975l-5.381,4.599l-3.465,3.413l-4.037,2.76
      l-4.129,4.514l-3.122,4.804l-3.778,3.883l-4.096,5.233c-0.747,0.754-4.311,4.314-5.052,4.722
      c-0.415,0.259-2.584,3.012-4.437,5.522l-0.158,0.14l-7.13,3.984l-6.537,2.532l-6.109,1.415l-8.556,2.583l-25.518,18.047
      L30.435,259.326z M66.495,231.443l-33.732,26.122l15.514-4.769l25.521-18.049l8.666-2.615l6.073-1.402l6.405-2.481l6.972-3.902
      c0.997-1.348,3.96-5.304,4.691-5.715c0.479-0.264,3.192-2.906,4.791-4.509l4.092-5.229l3.752-3.848l3.111-4.792l4.306-4.697
      l4.017-2.737l3.422-3.38l6.35-5.429l2.158,4.017l3.255,3.674c0.491,0.219,1.894,1.114,1.162,4.022
      c-0.507,2.021-3.75,14.13-5.378,20.202c4.802-8.029,17.375-29.048,17.921-29.955l4.224-6.999l5.189-9.475l2.223-4.831l1.394-1.427
      l2.039-2.515c0.593-1.06,2.794-4.743,4.256-4.743c0.08,0,0.159,0.009,0.234,0.028c0.002,0,0.005,0,0.007,0
      c0.678,0,1.938-0.953,2.772-1.584c0.884-0.669,1.393-1.042,1.799-1.11c0.55-0.459,2.186-4.083,3.62-8.024l0.069-0.128l4.633-6.207
      c0.203-0.203,1.521-1.456,2.269-1.874c0.305-0.17,1.077-0.89,1.757-1.525c0.947-0.884,1.549-1.436,1.928-1.649
      c0.446-0.25,2.751-2.605,4.246-4.198l5.438-5.182l2.337-1.78c0.433-0.248,2.342-1.294,3.147-1.335
      c0.434-0.193,2.21-2.616,3.064-3.781c0.441-0.601,0.821-1.12,1.067-1.422c0.604-0.743,1.494-1.618,2.28-2.39
      c0.422-0.415,0.799-0.785,1.047-1.055c0.678-0.744,2.906-3.367,2.928-3.394l4.257-3.793c0.085-0.062,2.155-1.411,4.029-4.955
      c0.62-1.17,1.783-1.398,2.225-1.442l2.003-1.438l0.454,0.94l0.728-2.586l0.979,0.093l0.613,7.206l0.407,7.956l1.603,8.001
      l3.845,3.491l2.51,6.021c0.042,0.148,1.595,6.877,1.887,7.922c0.222,0.791,2.036,4.197,2.907,5.834
      c0.267,0.502,0.48,0.903,0.597,1.128c0.266,0.516,0.904,1.449,1.521,2.351c0.616,0.901,1.253,1.833,1.653,2.532
      c0.779,1.363,3.108,4.458,3.131,4.489l2.984,5.955l7.066,4.687l-4.054,9.752l-3.02,20.239l5.788-12.632l5.252-12.819l5.452-8.149
      l2.622-4.634l0.824-6.064l2.877-5.938l1.646-5.441c0.035-0.366,0.512-4.376,0.954-5.512c0.424-1.085,1.693-4.735,1.706-4.772
      l0.092-0.161c1.013-1.187,3.485-3.954,4.556-4.01c0.372-0.152,1.328-2.083,2.015-4.127l2.696-5.269l2.103-5.135l1.794-3.848
      l0.67-4.573l0.608-7.354l3.132,0.698l1.364-3.035l0.512,0.604l0,0c0.001,0,0.033,0.018,0.123,0.018c0.608,0,1.834-0.7,2.599-1.224
      l0.012-9.311l6.633-4.834l3.951,5.811l-0.207,5.394l3.787,4.178c0.269,0.826,2.631,8.105,2.687,9.219
      c0.054,0.982,1.219,6.248,2.009,7.839c0.613,1.222-0.061,7.154-0.236,8.604l2.38,7.643l3.039,9.551l5.97,9.771l3.193,7.964
      l3.095,6.878l3.739,12.254l4.722,5.822l1.979,6.412l2.668,6.501l8.597,8.076l6.945,10.599l10.419,27.318l10.164,2.163
      c-1.896-2.494-6.45-8.546-7.333-10.261c-0.327-0.638-0.798-1.465-1.312-2.369c-1.235-2.174-2.636-4.638-3.069-6.188
      c-0.584-2.083-4.432-11.195-4.471-11.287l-5.372-9.808c-0.111-0.169-3.19-4.917-4.276-7.028c-1.089-2.125-2.117-4.132-4.591-6.111
      c-2.557-2.048-1.006-7.854-0.665-9.01c-2.102-4.382-4.725-9.058-5.543-9.412c-1.633-0.704-3.734-5.328-3.969-5.853l-3.783-6.375
      l-0.535-10.467l-7.976-13.595l-4.482-10.133l-0.771-15.101l-2.98-10.645l-3.741-15.746l-4.448-20.04l-8.585-21.666
      c-0.899,1.565-2.688,4.815-2.953,6.362c-0.39,2.259-4.763,9.521-4.949,9.829l-5.364,8.122l0.327,6.42l-3.899,12.004l-4.974,6.688
      l-3.211,13.091l-1.37,11.762l-4.688,4.616l-5.002,16.058l-5.242,12.61l-4.848,8.25l-6.905-2.401l-0.093-0.156
      c-2.85-4.765-6.304-9.911-7.149-10.275c-1.629-0.701-2.831-6.14-3.087-7.39l-5.441-11.239l-4.579-12.266l-0.771-15.076
      l-6.187-16.252l-3.213-11.82l-5.411,14.832l-5.004,10.163l-8.261,10.551l-4.65,6.846l-9.831,6.967l-4.494,6.67l-5.602,6.133
      l-7.513,6.182c-0.424,0.56-4.553,6.046-5.342,8.073c-0.583,1.491-2.282,2.165-3.782,2.758c-1.012,0.401-1.968,0.779-2.472,1.33
      c-0.401,0.438-1.055,1.052-1.813,1.764c-1.879,1.765-4.453,4.183-5.034,5.672c-0.863,2.208-4.701,10.08-4.864,10.414l-0.072,0.109
      c-1.259,1.445-4.59,5.563-4.879,7.249c-0.2,1.163-1.073,2.995-1.996,4.934c-0.854,1.792-1.736,3.645-1.913,4.671
      c-0.11,0.636-0.563,1.703-2.364,1.703c-1.065,0-2.121-0.38-2.166-0.396l-0.222-0.081l-3.252-9.277l-8.077,4.137l-8.404,6.911
      l-8.681,10.51l-7.716,12.749l-12.291,10.834l-12.909,5.726L66.495,231.443z"/>
  </g>
  <g>
    <g>
      <path stroke-width="7" fill-opacity=0.0 d="M103.151,239.689c21.772-4.702,43.563-8.455,65.654-11.311
        c9.009,75.26,18,150.521,27.004,225.782c-30.402,4.106-59.592,10.886-88.698,20.58c-4.632-13.225-9.265-26.449-13.896-39.674
        c16.763-5.639,33.578-10.468,50.779-14.578c-0.368-1.631-0.553-2.447-0.921-4.078c-17.356,4.154-34.325,9.023-51.24,14.711
        c-19.966-56.996-39.928-113.994-59.889-170.992c21.231-7.206,42.586-13.466,64.351-18.852
        c10.714,45.125,21.424,90.251,32.139,135.376c2.149-0.51,3.224-0.76,5.377-1.247
        C123.592,330.168,113.374,284.928,103.151,239.689z"/>
      <path stroke-width="7" fill-opacity=0.0 d="M175.757,227.584c46.663-4.641,92.878-5.018,139.565-0.497
        c-3.195,29.408-6.385,58.816-9.583,88.224c-19.074-1.822-38.024-2.81-57.184-3.02c0.084-15.569,0.163-31.138,0.253-46.707
        c-2.614,0-3.921,0.007-6.535,0.035c0.252,47.772,0.514,95.544,0.775,143.317c1.994-0.025,2.99-0.032,4.984-0.035
        c0.164-30.811,0.335-61.621,0.499-92.432c19.016,0.208,37.824,1.188,56.755,2.996c-4.837,44.561-9.677,89.122-14.521,133.683
        c-30.353-2.744-60.122-2.411-90.45,0.496C192.125,378.292,183.946,302.937,175.757,227.584z"/>
      <path stroke-width="7" fill-opacity=0.0 d="M384.052,285.982c20.2,4.998,40.021,10.808,59.726,17.496
        c-4.629,13.226-9.264,26.45-13.894,39.675c-20.265-6.856-40.64-12.706-61.455-17.642c-7.106,31.494-14.234,62.983-21.341,94.477
        c1.957,0.442,2.935,0.669,4.888,1.133c7.128-30.059,14.266-60.115,21.404-90.172c18.644,4.649,36.918,10.006,55.123,16.149
        c-14.849,42.379-29.695,84.758-44.53,127.142c-29.109-9.693-58.298-16.468-88.702-20.581
        c9.008-75.259,18.006-150.52,27.002-225.781c24.43,3.149,48.494,7.428,72.511,12.899
        C391.206,255.846,387.63,270.914,384.052,285.982z"/>
    </g>
  </g>
</g>
</svg>
